# 3ds Max Wavefront OBJ Exporter v0.97b - (c)2007 guruware
# File Created: 24.04.2019 23:20:47

mtllib sword.mtl

#
# object Box001
#

v  -20.0000 0.7000 -2.0144
v  15.0862 0.7000 -2.0144
v  15.0862 0.7000 -0.0144
v  -20.0000 0.7000 -0.0144
v  19.0000 0.7000 -0.6114
v  19.0000 0.7000 -2.0144
v  22.0000 0.7000 -2.0144
v  22.0000 0.7000 1.7213
v  25.0000 0.7000 -2.0144
v  25.0000 0.7000 -0.6114
v  25.7775 0.7000 -2.0144
v  25.5353 0.7000 -0.6114
v  -20.0000 0.7000 -4.0144
v  15.0862 0.7000 -4.0144
v  19.0000 0.7000 -3.4174
v  22.0000 0.7000 -5.7501
v  25.0000 0.7000 -3.4174
v  25.5353 0.7000 -3.4174
v  -20.0000 1.3000 -0.0144
v  -20.0000 1.3000 -2.0144
v  -30.0000 1.0000 -2.0144
v  15.0862 1.3000 -0.0144
v  15.0862 1.3000 -2.0144
v  19.0000 1.3000 -0.6114
v  22.0000 1.3000 1.7213
v  22.0000 1.3000 -2.0144
v  19.0000 1.3000 -2.0144
v  25.0000 1.3000 -0.6114
v  25.0000 1.3000 -2.0144
v  25.5353 1.3000 -0.6114
v  25.7775 1.3000 -2.0144
v  15.0862 1.3000 -4.0144
v  -20.0000 1.3000 -4.0144
v  22.0000 1.3000 -5.7501
v  19.0000 1.3000 -3.4174
v  25.0000 1.3000 -3.4174
v  25.5353 1.3000 -3.4174
v  15.0862 1.0000 0.2240
v  -20.0000 1.0000 0.2240
v  22.0000 1.0000 2.1666
v  19.0000 1.0000 -0.4442
v  25.0000 1.0000 -0.4442
v  25.4304 1.0000 -0.4442
v  25.0000 1.0000 -3.5846
v  25.4304 1.0000 -3.5846
v  22.0000 1.0000 -6.1953
v  19.0000 1.0000 -3.5846
v  16.1868 0.7000 -3.4174
v  16.1868 1.0000 -3.5846
v  16.1868 1.3000 -3.4174
v  -20.0000 1.0000 -4.2528
v  16.1868 0.7000 -0.6114
v  16.1868 0.7000 -2.0144
v  16.1868 1.3000 -2.0144
v  16.1868 1.3000 -0.6114
v  16.1868 1.0000 -0.4442
v  15.0862 1.0000 -4.2528
v  25.8623 0.3975 -2.0144
v  24.6445 0.3975 4.6313
v  24.6445 0.3975 -8.6601
v  24.4344 1.0000 -9.4522
v  24.6445 1.6025 -8.6601
v  25.8623 1.6025 -2.0144
v  24.6445 1.6025 4.6313
v  24.4344 1.0000 5.4234
v  26.1452 0.3975 -2.0144
v  24.8945 0.3975 4.6313
v  24.8945 0.3975 -8.6601
v  24.6844 1.0000 -9.4522
v  24.8945 1.6025 -8.6601
v  26.1452 1.6025 -2.0144
v  24.8945 1.6025 4.6313
v  24.6844 1.0000 5.4234
v  27.1074 0.5790 -2.0144
v  26.6235 0.5790 -0.1804
v  26.6235 0.5790 -3.8484
v  26.6235 1.0000 -4.0670
v  26.6235 1.4210 -3.8484
v  27.1074 1.4210 -2.0144
v  26.6235 1.4210 -0.1804
v  26.6235 1.0000 0.0382
v  27.2160 0.5790 -2.0144
v  26.9030 0.5790 -0.1804
v  26.9115 0.5790 -3.8484
v  26.8765 1.0000 -4.0670
v  26.9115 1.4210 -3.8484
v  27.2160 1.4210 -2.0144
v  26.9030 1.4210 -0.1804
v  26.8765 1.0000 0.0382
v  27.2672 0.4112 -2.0144
v  26.2914 0.4112 4.0674
v  26.2914 0.4112 -8.0961
v  26.1533 1.0000 -8.8210
v  26.2914 1.5888 -8.0961
v  27.2672 1.5888 -2.0144
v  26.2914 1.5888 4.0674
v  26.1533 1.0000 4.7923
v  27.5172 0.4112 -2.0144
v  26.5414 0.4112 4.0674
v  26.5414 0.4112 -8.0961
v  26.4033 1.0000 -8.8210
v  26.5414 1.5888 -8.0961
v  27.5172 1.5888 -2.0144
v  26.5414 1.5888 4.0674
v  26.4033 1.0000 4.7923
v  28.3735 0.5790 -2.0144
v  28.0245 0.5790 -0.8530
v  28.0245 0.5790 -3.1758
v  28.0245 1.0000 -3.3143
v  28.0245 1.4210 -3.1758
v  28.3735 1.4210 -2.0144
v  28.0245 1.4210 -0.8530
v  28.0245 1.0000 -0.7145
v  38.0245 0.5790 -2.0144
v  38.0245 0.5790 -0.8530
v  38.0245 0.5790 -3.1758
v  38.0245 1.0000 -3.3143
v  38.0245 1.4210 -3.1758
v  38.0245 1.4210 -2.0144
v  38.0245 1.4210 -0.8530
v  38.0245 1.0000 -0.7145
v  39.1281 0.6728 -2.0144
v  39.1281 0.6728 -1.1995
v  39.1281 0.6728 -2.8293
v  39.1281 1.0000 -2.9264
v  39.1281 1.3272 -2.8293
v  39.1281 1.3272 -2.0144
v  39.1281 1.3272 -1.1995
v  39.1281 1.0000 -1.1024
v  39.3678 1.0000 -2.0144
# 130 vertices

vn -0.0150 -0.9999 -0.0000
vn 0.0000 -1.0000 -0.0000
vn -0.0140 -0.9999 -0.0000
vn -0.0140 0.9999 -0.0000
vn -0.0150 0.9999 -0.0000
vn -0.0300 0.9996 -0.0000
vn 0.0000 1.0000 -0.0000
vn 0.2169 -0.6073 0.7643
vn 0.2375 0.0043 0.9714
vn 0.0000 -0.0000 1.0000
vn 0.0000 -0.6221 0.7829
vn -0.2782 -0.4828 0.8304
vn 0.0252 -0.8242 0.5658
vn -0.0000 0.0000 1.0000
vn -0.3770 0.0128 0.9261
vn 0.2623 -0.4698 0.8429
vn 0.3770 -0.0128 0.9261
vn -0.0000 -0.4869 0.8735
vn -0.0000 -0.0000 1.0000
vn 0.2395 0.5945 0.7676
vn -0.0000 0.6221 0.7829
vn -0.0252 0.8242 0.5658
vn -0.2623 0.4698 0.8429
vn 0.2782 0.4828 0.8304
vn -0.0000 0.4869 0.8735
vn 0.0000 -0.4869 -0.8735
vn 0.2782 -0.4828 -0.8304
vn 0.3770 0.0128 -0.9261
vn 0.0000 -0.0000 -1.0000
vn -0.0252 -0.8242 -0.5658
vn -0.0000 0.0000 -1.0000
vn -0.2623 -0.4698 -0.8429
vn -0.3770 -0.0128 -0.9261
vn 0.2017 -0.4769 -0.8555
vn 0.2822 -0.0097 -0.9593
vn 0.2623 0.4698 -0.8429
vn 0.0000 0.4869 -0.8735
vn 0.0252 0.8242 -0.5658
vn -0.2782 0.4828 -0.8304
vn 0.2148 0.4875 -0.8463
vn -0.0300 -0.9996 -0.0000
vn -0.1726 -0.6128 0.7712
vn -0.2184 0.0000 0.9759
vn -0.1726 -0.6128 -0.7712
vn -0.2184 0.0000 -0.9759
vn -0.1726 0.6128 0.7712
vn -0.1726 0.6128 -0.7712
vn 0.2822 0.0097 0.9593
vn 0.2148 -0.4875 0.8463
vn 0.2017 0.4769 0.8555
vn 0.2395 -0.5945 -0.7676
vn 0.2375 -0.0043 -0.9714
vn 0.2169 0.6073 -0.7643
vn 0.0000 -0.6221 -0.7829
vn 0.0000 0.6221 -0.7829
vn -0.9577 -0.2295 -0.1737
vn -0.9577 -0.2295 0.1737
vn -0.9726 -0.1593 0.1695
vn -0.9726 0.1593 0.1695
vn -0.9577 0.2295 0.1737
vn -0.9577 0.2295 -0.1737
vn -0.9726 0.1593 -0.1695
vn -0.9726 -0.1593 -0.1695
vn 0.0000 -1.0000 0.0000
vn 0.0000 -0.7959 -0.6054
vn 0.0000 0.7959 -0.6054
vn 0.0000 0.7959 0.6054
vn 0.0000 -0.7959 0.6054
vn 0.2079 -0.9772 0.0425
vn 0.2079 -0.9772 -0.0425
vn 0.9328 -0.1374 -0.3331
vn 0.9328 0.1374 -0.3331
vn 0.2079 0.9772 -0.0425
vn 0.2079 0.9772 0.0425
vn 0.9328 0.1374 0.3331
vn 0.9328 -0.1374 0.3331
vn -0.0000 -1.0000 0.0000
vn -0.0000 -0.4608 -0.8875
vn 0.0000 0.4608 -0.8875
vn 0.0000 0.4608 0.8875
vn 0.0000 -0.4608 0.8875
vn -0.9207 -0.3603 -0.1499
vn -0.9325 -0.3283 0.1508
vn -0.9885 -0.0311 0.1481
vn -0.9885 0.0311 0.1481
vn -0.9325 0.3283 0.1508
vn -0.9207 0.3603 -0.1499
vn -0.9888 0.0237 -0.1471
vn -0.9888 -0.0237 -0.1471
vn 0.0000 -0.7762 -0.6305
vn 0.0000 0.7762 -0.6305
vn 0.0000 0.7762 0.6305
vn 0.0000 -0.7762 0.6305
vn 0.2269 -0.9730 0.0415
vn 0.2269 -0.9730 -0.0415
vn 0.9530 -0.1107 -0.2819
vn 0.9530 0.1107 -0.2819
vn 0.2269 0.9730 -0.0415
vn 0.2269 0.9730 0.0415
vn 0.9530 0.1107 0.2819
vn 0.9530 -0.1107 0.2819
vn 0.0000 -0.3124 -0.9500
vn 0.0000 0.3124 -0.9500
vn 0.0000 0.3124 0.9500
vn 0.0000 -0.3124 0.9500
vn 0.0847 -0.9964 0.0000
vn 0.3135 -0.2852 -0.9058
vn 0.3135 0.2852 -0.9058
vn 0.0847 0.9964 -0.0000
vn 0.3135 0.2852 0.9058
vn 0.3135 -0.2852 0.9058
vn 0.8067 -0.5910 0.0000
vn 0.9644 -0.0753 -0.2535
vn 0.9644 0.0753 -0.2535
vn 0.8067 0.5910 -0.0000
vn 0.9644 0.0753 0.2535
vn 0.9644 -0.0753 0.2535
# 117 vertex normals

vt 0.8000 0.5000 0.0000
vt 0.6974 0.5000 0.0000
vt 0.6974 0.0000 0.0000
vt 0.8000 0.0000 0.0000
vt 0.6000 0.0000 0.0000
vt 0.6000 0.5000 0.0000
vt 0.4000 0.5000 0.0000
vt 0.4000 0.0000 0.0000
vt 0.2000 0.5000 0.0000
vt 0.2000 0.0000 0.0000
vt 0.0000 0.5000 0.0000
vt 0.0000 0.0000 0.0000
vt 0.8000 1.0000 0.0000
vt 0.6974 1.0000 0.0000
vt 0.6000 1.0000 0.0000
vt 0.4000 1.0000 0.0000
vt 0.2000 1.0000 0.0000
vt 0.0000 1.0000 0.0000
vt 0.5000 0.5000 0.0000
vt 0.3026 0.0000 0.0000
vt 0.3026 0.5000 0.0000
vt 1.0000 0.0000 0.0000
vt 1.0000 0.5000 0.0000
vt 0.3026 1.0000 0.0000
vt 1.0000 1.0000 0.0000
vt 0.6462 0.0000 0.0000
vt 0.6462 0.5000 0.0000
vt 0.6462 1.0000 0.0000
vt 0.5000 0.0000 0.0000
vt 0.5000 1.0000 0.0000
vt 0.3538 0.5000 0.0000
vt 0.3538 0.0000 0.0000
vt 0.3538 1.0000 0.0000
# 33 texture coords

g Box001
usemtl wire_184228153
s 2
f 1/1/1 2/2/2 3/3/2 4/4/3 
f 5/5/2 6/6/2 7/7/2 8/8/2 
f 8/8/2 7/7/2 9/9/2 10/10/2 
f 10/10/2 9/9/2 11/11/2 12/12/2 
f 13/13/3 14/14/2 2/2/2 1/1/1 
f 6/6/2 15/15/2 16/16/2 7/7/2 
f 7/7/2 16/16/2 17/17/2 9/9/2 
f 9/9/2 17/17/2 18/18/2 11/11/2 
s 4
f 19/10/4 20/9/5 21/19/6 
f 22/20/7 23/21/7 20/9/5 19/10/4 
f 24/8/7 25/5/7 26/6/7 27/7/7 
f 25/5/7 28/4/7 29/1/7 26/6/7 
f 28/4/7 30/22/7 31/23/7 29/1/7 
f 23/21/7 32/24/7 33/17/4 20/9/5 
f 27/7/7 26/6/7 34/15/7 35/16/7 
f 26/6/7 29/1/7 36/13/7 34/15/7 
f 29/1/7 31/23/7 37/25/7 36/13/7 
s 8
f 3/20/8 38/21/9 39/9/10 4/10/11 
f 5/8/12 8/5/13 40/6/14 41/7/15 
f 8/5/13 10/4/16 42/1/17 40/6/14 
f 10/4/16 12/22/18 43/23/19 42/1/17 
f 38/21/9 22/24/20 19/17/21 39/9/10 
f 41/7/15 40/6/14 25/15/22 24/16/23 
f 40/6/14 42/1/17 28/13/24 25/15/22 
f 42/1/17 43/23/19 30/25/25 28/13/24 
s 32
f 18/12/26 17/10/27 44/9/28 45/11/29 
f 17/10/27 16/8/30 46/7/31 44/9/28 
f 16/8/30 15/5/32 47/6/33 46/7/31 
f 48/26/34 49/27/35 47/6/33 15/5/32 
f 45/11/29 44/9/28 36/17/36 37/18/37 
f 44/9/28 46/7/31 34/16/38 36/17/36 
f 46/7/31 47/6/33 35/15/39 34/16/38 
f 49/27/35 50/28/40 35/15/39 47/6/33 
s 4
f 21/19/6 20/9/5 33/17/4 
s 2
f 21/19/41 1/1/1 4/4/3 
f 13/13/3 1/1/1 21/19/41 
s 1
f 4/4/42 39/29/43 21/19/43 
s 8
f 13/13/44 21/19/45 51/30/45 
s 1
f 39/29/43 19/10/46 21/19/43 
s 8
f 21/19/45 33/17/47 51/30/45 
s 2
f 6/6/2 5/5/2 52/26/2 53/27/2 
f 15/15/2 6/6/2 53/27/2 48/28/2 
s 4
f 24/8/7 27/7/7 54/31/7 55/32/7 
f 27/7/7 35/16/7 50/33/7 54/31/7 
s 8
f 5/8/12 41/7/15 56/31/48 52/32/49 
f 41/7/15 24/16/23 55/33/50 56/31/48 
s 32
f 14/3/51 57/2/52 49/27/35 48/26/34 
f 57/2/52 32/14/53 50/28/40 49/27/35 
s 2
f 53/27/2 52/26/2 3/3/2 2/2/2 
f 48/28/2 53/27/2 2/2/2 14/14/2 
s 4
f 55/32/7 54/31/7 23/21/7 22/20/7 
f 54/31/7 50/33/7 32/24/7 23/21/7 
s 8
f 52/32/49 56/31/48 38/21/9 3/20/8 
f 56/31/48 55/33/50 22/24/20 38/21/9 
s 32
f 13/4/54 51/1/29 57/2/52 14/3/51 
f 51/1/29 33/13/55 32/14/53 57/2/52 
s off
f 12/12/56 11/29/56 58/29/56 59/12/56 
f 11/29/57 18/22/57 60/22/57 58/29/57 
f 18/22/58 45/23/58 61/23/58 60/22/58 
f 45/23/59 37/25/59 62/25/59 61/23/59 
f 37/25/60 31/30/60 63/30/60 62/25/60 
f 31/30/61 30/18/61 64/18/61 63/30/61 
f 30/18/62 43/11/62 65/11/62 64/18/62 
f 43/11/63 12/12/63 59/12/63 65/11/63 
f 59/12/64 58/29/64 66/29/64 67/12/64 
f 58/29/64 60/22/64 68/22/64 66/29/64 
f 60/22/65 61/23/65 69/23/65 68/22/65 
f 61/23/66 62/25/66 70/25/66 69/23/66 
f 62/25/7 63/30/7 71/30/7 70/25/7 
f 63/30/7 64/18/7 72/18/7 71/30/7 
f 64/18/67 65/11/67 73/11/67 72/18/67 
f 65/11/68 59/12/68 67/12/68 73/11/68 
f 67/12/69 66/29/69 74/29/69 75/12/69 
f 66/29/70 68/22/70 76/22/70 74/29/70 
f 68/22/71 69/23/71 77/23/71 76/22/71 
f 69/23/72 70/25/72 78/25/72 77/23/72 
f 70/25/73 71/30/73 79/30/73 78/25/73 
f 71/30/74 72/18/74 80/18/74 79/30/74 
f 72/18/75 73/11/75 81/11/75 80/18/75 
f 73/11/76 67/12/76 75/12/76 81/11/76 
f 75/12/64 74/29/64 82/29/64 83/12/64 
f 74/29/77 76/22/77 84/22/77 82/29/77 
f 76/22/78 77/23/78 85/23/78 84/22/78 
f 77/23/79 78/25/79 86/25/79 85/23/79 
f 78/25/7 79/30/7 87/30/7 86/25/7 
f 79/30/7 80/18/7 88/18/7 87/30/7 
f 80/18/80 81/11/80 89/11/80 88/18/80 
f 81/11/81 75/12/81 83/12/81 89/11/81 
f 90/29/82 91/12/82 83/12/82 82/29/82 
f 90/29/83 82/29/83 84/22/83 92/22/83 
f 84/22/84 85/23/84 93/23/84 92/22/84 
f 85/23/85 86/25/85 94/25/85 93/23/85 
f 86/25/86 87/30/86 95/30/86 94/25/86 
f 95/30/87 87/30/87 88/18/87 96/18/87 
f 88/18/88 89/11/88 97/11/88 96/18/88 
f 89/11/89 83/12/89 91/12/89 97/11/89 
f 91/12/64 90/29/64 98/29/64 99/12/64 
f 90/29/64 92/22/64 100/22/64 98/29/64 
f 92/22/90 93/23/90 101/23/90 100/22/90 
f 93/23/91 94/25/91 102/25/91 101/23/91 
f 94/25/7 95/30/7 103/30/7 102/25/7 
f 95/30/7 96/18/7 104/18/7 103/30/7 
f 96/18/92 97/11/92 105/11/92 104/18/92 
f 97/11/93 91/12/93 99/12/93 105/11/93 
f 99/12/94 98/29/94 106/29/94 107/12/94 
f 98/29/95 100/22/95 108/22/95 106/29/95 
f 100/22/96 101/23/96 109/23/96 108/22/96 
f 101/23/97 102/25/97 110/25/97 109/23/97 
f 102/25/98 103/30/98 111/30/98 110/25/98 
f 103/30/99 104/18/99 112/18/99 111/30/99 
f 104/18/100 105/11/100 113/11/100 112/18/100 
f 105/11/101 99/12/101 107/12/101 113/11/101 
f 107/12/64 106/29/64 114/29/64 115/12/64 
f 106/29/64 108/22/64 116/22/64 114/29/64 
f 108/22/102 109/23/102 117/23/102 116/22/102 
f 109/23/103 110/25/103 118/25/103 117/23/103 
f 110/25/7 111/30/7 119/30/7 118/25/7 
f 111/30/7 112/18/7 120/18/7 119/30/7 
f 112/18/104 113/11/104 121/11/104 120/18/104 
f 113/11/105 107/12/105 115/12/105 121/11/105 
f 115/12/106 114/29/106 122/29/106 123/12/106 
f 114/29/106 116/22/106 124/22/106 122/29/106 
f 116/22/107 117/23/107 125/23/107 124/22/107 
f 117/23/108 118/25/108 126/25/108 125/23/108 
f 118/25/109 119/30/109 127/30/109 126/25/109 
f 119/30/109 120/18/109 128/18/109 127/30/109 
f 120/18/110 121/11/110 129/11/110 128/18/110 
f 121/11/111 115/12/111 123/12/111 129/11/111 
f 123/12/112 122/29/112 130/19/112 
f 122/29/112 124/22/112 130/19/112 
f 124/22/113 125/23/113 130/19/113 
f 125/23/114 126/25/114 130/19/114 
f 126/25/115 127/30/115 130/19/115 
f 127/30/115 128/18/115 130/19/115 
f 128/18/116 129/11/116 130/19/116 
f 129/11/117 123/12/117 130/19/117 
# 120 polygons - 16 triangles

